<svg xmlns="http://www.w3.org/2000/svg" viewBox="0 0 410 404" fill="none">
  <path d="M399.641 59.524L215.643 388.545c-3.805 6.804-13.582 6.838-17.434.061L9.368 59.548c-4.149-7.263 2.063-16.197 10.244-14.726l184.116 33.111a10 10 0 0 0 3.534-.002l182.119-33.094c8.172-1.485 14.395 7.417 10.26 14.687Z" fill="url(#a)"/>
  <path d="M292.965 1.574 156.58 28.285a5 5 0 0 0-4.03 4.11l-8.396 141.28a5 5 0 0 0 6.065 5.193l37.972-8.765c3.553-.82 6.763 2.308 5.941 5.862l-11.278 48.75c-.76 3.286 2.34 6.176 5.54 5.22l23.45-7.015c3.206-.96 6.312 1.93 5.554 5.22l-17.93 77.72c-1.123 4.87 5.361 7.527 7.939 3.256l1.722-2.853 111.111-221.72c1.862-3.714-1.345-7.896-5.46-7.102l-39.092 7.532c-3.672.708-6.79-2.708-5.998-6.363l25.515-117.947c.792-3.661-2.34-7.08-6.01-6.363Z" fill="url(#b)"/>
  <defs>
    <linearGradient id="a" x1="6" y1="32" x2="235" y2="344" gradientUnits="userSpaceOnUse">
      <stop stop-color="#41D1FF"/>
      <stop offset="1" stop-color="#BD34FE"/>
    </linearGradient>
    <linearGradient id="b" x1="194.651" y1="8.818" x2="236.076" y2="292.989" gradientUnits="userSpaceOnUse">
      <stop stop-color="#FFEA83"/>
      <stop offset="0.083" stop-color="#FFDD35"/>
      <stop offset="1" stop-color="#FFA800"/>
    </linearGradient>
  </defs>
</svg>
